# xmcd
#
# Track frame offsets:
#	150
#	16773
#	39579
#	57135
#	70312
#	90040
#	106526
#	126317
#	141285
#	158578
#	171263
#	191585
#	208831
#	220376
#
# Disc length: 3192 seconds
#
# Revision: 5
# Processed by: cddbd v1.5.2PL0 Copyright (c) Steve Scherf et al.
# Submitted via: EasyCDDAExtractor 12.0.1.1
#
DISCID=bb0c760e
DTITLE=Nitty Gritty Dirt Band - Will The Circle Be Unbroken, Vol. 3 [cd1]
DYEAR=2002
DGENRE=Country
TTITLE0=Del McCoury With Robbie McCoury And Ronnie McCoury - Take Me In Your L
TTITLE0=ifeboat
TTITLE1=Doc Watson With Richard Watson And Josh Graves - Milk Cow Blues
TTITLE2=Jimmy Ibbotson - I Find Jesus
TTITLE3=Jimmy Martin - Hold Watcha Got
TTITLE4=Iris DeMent - Mama's Opry
TTITLE5=June Carter Cash With Earl Scruggs - Diamonds In The Rough
TTITLE6=Sam Bush - Lonesome River
TTITLE7=Dwight Yoakam - Some Dark Holler
TTITLE8=Jaime Hanna And Jonathan McEuen - The Lowlands
TTITLE9=Del McCoury With Robbie McCoury And Ronnie McCoury - Love, Please Come
TTITLE9=Home
TTITLE10=Willie Nelson And Tom Petty - Goodnight Irene
TTITLE11=The Nashville Bluegrass Band - I Know What It Means To Be Lonesome
TTITLE12=Emmylou Harris - I'll Be Faithful To You
TTITLE13=Johnny Cash - Tears In The Holston River
EXTD=(c)2002 Capitol Records Nashville\nupc 724354017704
EXTT0=Del McCoury
EXTT1=Doc Watson
EXTT2=
EXTT3=Jimmy Martin
EXTT4=Iris DeMent
EXTT5=June Carter Cash
EXTT6=Sam Bush
EXTT7=Dwight Yoakam
EXTT8=
EXTT9=Del McCoury
EXTT10=Willie Nelson, Tom Petty
EXTT11=Nashville Bluegrass Band
EXTT12=Emmylou Harris
EXTT13=Johnny Cash
PLAYORDER=
